<?xml version="1.0" standalone="no"?>
<!DOCTYPE svg PUBLIC "-//W3C//DTD SVG 20010904//EN"
 "http://www.w3.org/TR/2001/REC-SVG-20010904/DTD/svg10.dtd">
<svg version="1.0" xmlns="http://www.w3.org/2000/svg"
 width="100.000000pt" height="100.000000pt" viewBox="0 0 100.000000 100.000000"
 preserveAspectRatio="xMidYMid meet">

<g transform="translate(0.000000,100.000000) scale(0.100000,-0.100000)"
fill="#000000" stroke="none">
<path d="M359 831 c-49 -10 -119 -41 -136 -63 -6 -7 -36 -79 -67 -160 l-56
-146 0 -131 c0 -161 6 -171 100 -171 65 0 100 21 100 60 0 19 7 20 200 20 193
0 200 -1 200 -20 0 -39 35 -60 100 -60 94 0 100 10 100 171 l0 132 -60 152
c-33 84 -69 160 -78 168 -37 33 -105 49 -232 52 -69 2 -146 0 -171 -4z m321
-51 c19 -7 43 -20 52 -28 16 -14 78 -158 78 -182 0 -6 -11 -15 -24 -22 -22 -9
-29 -7 -59 26 -19 20 -40 36 -46 36 -8 0 -7 7 3 22 22 31 20 58 -6 85 -27 29
-65 29 -95 1 -27 -25 -29 -54 -7 -86 10 -15 11 -22 3 -22 -6 0 -27 -16 -45
-36 l-34 -35 -34 35 c-18 20 -39 36 -45 36 -8 0 -7 7 3 22 22 31 20 58 -6 85
-27 29 -65 29 -95 1 -27 -25 -29 -54 -7 -86 8 -12 11 -22 5 -22 -6 0 -27 -16
-47 -36 -32 -32 -39 -35 -60 -25 -30 13 -30 22 1 101 42 108 55 120 150 140
55 12 272 5 315 -10z m-285 -110 c0 -18 -6 -26 -23 -28 -24 -4 -38 18 -28 44
3 9 15 14 28 12 17 -2 23 -10 23 -28z m260 0 c0 -18 -6 -26 -23 -28 -24 -4
-38 18 -28 44 3 9 15 14 28 12 17 -2 23 -10 23 -28z m-234 -110 l24 -19 -75 0
-75 0 24 19 c13 11 36 20 51 20 15 0 38 -9 51 -20z m260 0 l24 -19 -75 0 -75
0 24 19 c13 11 36 20 51 20 15 0 38 -9 51 -20z m-341 -120 c11 -11 20 -29 20
-40 0 -26 -34 -60 -60 -60 -43 0 -120 51 -120 80 0 29 23 40 82 40 45 0 63 -5
78 -20z m474 -2 c15 -24 0 -47 -50 -75 -48 -28 -78 -29 -104 -3 -26 26 -25 55
0 80 17 17 31 20 82 18 45 -2 64 -8 72 -20z"/>
<path d="M46 599 c-30 -23 -34 -60 -10 -84 24 -24 36 -14 60 48 l22 57 -22 0
c-13 0 -35 -9 -50 -21z"/>
<path d="M901 568 c30 -78 35 -81 63 -52 36 36 -3 104 -60 104 l-24 0 21 -52z"/>
</g>
</svg>
